<?xml version="1.0" encoding="UTF-8" standalone="no"?>
<!-- Generator: Adobe Illustrator 24.3.0, SVG Export Plug-In . SVG Version: 6.00 Build 0)  -->

<svg
   version="1.1"
   id="Layer_1"
   x="0px"
   y="0px"
   viewBox="0 0 213 91"
   xml:space="preserve"
   sodipodi:docname="jabil-logo-fy21-MSA Line 2.svg"
   inkscape:version="1.3 (0e150ed6c4, 2023-07-21)"
   width="213"
   height="91"
   xmlns:inkscape="http://www.inkscape.org/namespaces/inkscape"
   xmlns:sodipodi="http://sodipodi.sourceforge.net/DTD/sodipodi-0.dtd"
   xmlns="http://www.w3.org/2000/svg"
   xmlns:svg="http://www.w3.org/2000/svg"><defs
   id="defs9" /><sodipodi:namedview
   id="namedview9"
   pagecolor="#ffffff"
   bordercolor="#000000"
   borderopacity="0.25"
   inkscape:showpageshadow="2"
   inkscape:pageopacity="0.0"
   inkscape:pagecheckerboard="0"
   inkscape:deskcolor="#d1d1d1"
   inkscape:zoom="5.2076923"
   inkscape:cx="135.08863"
   inkscape:cy="26.40325"
   inkscape:window-width="2400"
   inkscape:window-height="1271"
   inkscape:window-x="2391"
   inkscape:window-y="-9"
   inkscape:window-maximized="1"
   inkscape:current-layer="XMLID_25_" />&#10;<style
   type="text/css"
   id="style1">&#10;	.st0{fill:#FFFFFF;}&#10;	.st1{fill:#54C0E8;}&#10;	.st2{fill:#9CA9FF;}&#10;</style>&#10;&#10; &#10;&#10;<g
   id="XMLID_25_">&#10;	<!--J-->&#10;	<path
   class="st0"
   d="m 72,85 m 0,-10 v 5 q 0,5 5,5 h 10 q 5,0 5,-5 V 60 H 87 V 80 H 77 v -7"
   id="path1" />&#10;	&#10;	<!--A-->&#10;	<path
   class="st0"
   d="m 97,85 15,-25 h 5 l 15,25 h -5 L 114.5,65 102,85"
   id="path2" />&#10;	&#10;	<!--B-->&#10;	<path
   class="st0"
   d="M 137,85 V 60 h 20 q 5,0 5,5 v 2 q 0,5 -5,5 5,0 5,5 v 3 q 0,5 -5,5 h -15 v -4 h 12.5 q 2.5,0 2.5,-2.5 v -2 Q 157,74 154.5,74 H 142 v -4 h 12.5 q 2.5,0 2.5,-2.5 v -1 Q 157,64 154.5,64 H 142 v 21"
   id="path3" />&#10;	&#10;	<!--I-->&#10;	<path
   class="st0"
   d="M 172,85 V 60 h 5 v 25"
   id="path4" />&#10;	&#10;	<!--L-->&#10;	<path
   class="st0"
   d="M 187,85 V 60 h 5 v 20 h 15 v 5"
   id="path5" />&#10;	&#10;	<!--Acenter-->&#10;	<path
   class="st1"
   d="m 97,85 m 13.5,-14 h 29 l -34.6,9.5"
   id="path6" />&#10;&#10;	&#10;	&#10;	<!-- FSA lines -->&#10;	<!--F-->&#10;	&#10;&#10;	<!--S-->&#10;	&#10;	&#10;	<!--A-->&#10;	&#10;&#10;&#10;&#10;	&#10;<text
   xml:space="preserve"
   style="font-style:normal;font-variant:normal;font-weight:normal;font-stretch:normal;font-size:85.8236px;font-family:'Siemens Sans SC Black';-inkscape-font-specification:'Siemens Sans SC Black, Normal';font-variant-ligatures:normal;font-variant-caps:normal;font-variant-numeric:normal;font-variant-east-asian:normal;fill:#0000ff;stroke-width:0.953595"
   x="0.10273646"
   y="53.623898"
   id="text9"
   inkscape:label="text9"
   transform="scale(0.95359546,1.0486627)"><tspan
     sodipodi:role="line"
     id="tspan1"
     x="0.10273646"
     y="53.623898"
     style="stroke-width:0.953595">m s a</tspan></text></g>&#10;&#10;&#10;&#10;&#10;</svg>
